{"title":"Hoodoo Gurus (1992) Electric Soup The Singles Collection [Image]","uid":9045131,"size":487535821,"categoryP":"audio","categoryS":"flac","magnet":"?xt=urn:btih:849dcbd11ecf5315509218e9f47c1abb2c008cfe&amp;dn=Hoodoo+Gurus+%281992%29+Electric+Soup+The+Singles+Collection+%5BImage%5D&amp;tr=udp%3A%2F%2Ftracker.openbittorrent.com%3A80&amp;tr=udp%3A%2F%2Fopen.demonii.com%3A1337&amp;tr=udp%3A%2F%2Ftracker.coppersurfer.tk%3A6969&amp;tr=udp%3A%2F%2Fexodus.desync.com%3A6969","seeders":1,"leechers":0,"uploader":"alvaro_w","files":10,"time":1381726574,"description":"===================================================================================\n************************** PLEASE SEED AFTER DOWNLOADING **************************\n===================================================================================\n\nArtist: Hoodoo Gurus\nAlbum: Electric Soup: The Singles Collection\nYear: 1992\nLabel: BMG Ariola Discos Ltda. Brazil (P 1995)\nBarcode: 74321107412\n\nTrack Listing\n\n01. What's My Scene\n02. Bittersweet\n03. Come Anytime\n04. My Girl\n05. 1000 Miles Away\n06. I Want You Back\n07. Axegrinder\n08. The Generation Gap\n09. Death Defying\n10. A Place in the Sun\n11. Tojo\n12. In the Middle of the Land\n13. Good Times\n14. Castles in the Air\n15. Leilani\n16. Poison Pen\n17. Another World\n18. Like Wow-Wipeout!\n19. Miss Freelove '69\n\n===================================================================================\nEAC Rip| Image+Cue+Log | Scans (Made in Brazil) | Accurate Rip\n===================================================================================\n\n\nExact Audio Copy V1.0 beta 3 from 29. August 2011\n\nEAC extraction logfile from 6. October 2012, 22:27\n\nHoodoo Gurus / Electric Soup - The Singles Collection\n\nUsed drive  : TSSTcorpCDDVDW SE-208AB   Adapter: 7  ID: 1\n\nRead mode               : Secure\nUtilize accurate stream : Yes\nDefeat audio cache      : Yes\nMake use of C2 pointers : No\n\nRead offset correction                      : 6\nOverread into Lead-In and Lead-Out          : No\nFill up missing offset samples with silence : Yes\nDelete leading and trailing silent blocks   : No\nNull samples used in CRC calculations       : Yes\nUsed interface                              : Native Win32 interface for Win NT &amp; 2000\n\nUsed output format              : User Defined Encoder\nSelected bitrate                : 1024 kBit/s\nQuality                         : High\nAdd ID3 tag                     : No\nCommand line compressor         : C:Program FilesExact Audio CopyFLACFLAC.EXE\nAdditional command line options : -8 -V -T &quot;ARTIST=%artist%&quot; -T &quot;TITLE=%title%&quot; -T &quot;ALBUM=%albumtitle%&quot; -T &quot;DATE=%year%&quot; -T &quot;TRACKNUMBER=%tracknr%&quot; -T &quot;TOTALTRACKS=%numtracks%&quot; -T &quot;GENRE=%genre%&quot; -T &quot;ALBUMARTIST=%albumartist%&quot; -T &quot;COMPOSER=%composer%&quot; -T &quot;ALBUMCOMPOSER=%albumcomposer%&quot; -T &quot;ALBUM ARTIST=%albumartist%&quot; -T &quot;COMMENT=EAC Secure Mode, Test &amp; Copy, AccurateRip, FLAC -8&quot; %source%\n\n\nTOC of the extracted CD\n\n     Track |   Start  |  Length  | Start sector | End sector \n    ---------------------------------------------------------\n        1  |  0:00.00 |  3:49.27 |         0    |    17201   \n        2  |  3:49.27 |  3:48.13 |     17202    |    34314   \n        3  |  7:37.40 |  3:19.35 |     34315    |    49274   \n        4  | 10:57.00 |  2:39.32 |     49275    |    61231   \n        5  | 13:36.32 |  4:28.22 |     61232    |    81353   \n        6  | 18:04.54 |  3:11.26 |     81354    |    95704   \n        7  | 21:16.05 |  3:25.65 |     95705    |   111144   \n        8  | 24:41.70 |  3:41.07 |    111145    |   127726   \n        9  | 28:23.02 |  3:24.65 |    127727    |   143091   \n       10  | 31:47.67 |  3:39.58 |    143092    |   159574   \n       11  | 35:27.50 |  3:22.10 |    159575    |   174734   \n       12  | 38:49.60 |  4:32.07 |    174735    |   195141   \n       13  | 43:21.67 |  3:00.63 |    195142    |   208704   \n       14  | 46:22.55 |  4:50.30 |    208705    |   230484   \n       15  | 51:13.10 |  4:06.70 |    230485    |   249004   \n       16  | 55:20.05 |  4:11.17 |    249005    |   267846   \n       17  | 59:31.22 |  3:15.18 |    267847    |   282489   \n       18  | 62:46.40 |  3:12.35 |    282490    |   296924   \n       19  | 65:59.00 |  4:12.57 |    296925    |   315881   \n\n\nRange status and errors\n\nSelected range\n\n     Filename C:UsersAlvaro_WDesktopEAC RipsHoodoo Gurus - Electric Soup - The Singles Collection.wav\n\n     Peak level 100.0 %\n     Extraction speed 2.1 X\n     Range quality 99.9 %\n     Copy CRC 39A5D933\n     Copy OK\n\nNo errors occurred\n\n \nAccurateRip summary\n \nTrack  1  accurately ripped (confidence 1)  [789D1304]  (AR v1)\nTrack  2  accurately ripped (confidence 1)  [BF9D3EA5]  (AR v1)\nTrack  3  accurately ripped (confidence 1)  [C27F6515]  (AR v1)\nTrack  4  accurately ripped (confidence 1)  [F140854C]  (AR v1)\nTrack  5  accurately ripped (confidence 1)  [851CFB46]  (AR v1)\nTrack  6  accurately ripped (confidence 1)  [452A59BA]  (AR v1)\nTrack  7  accurately ripped (confidence 1)  [F712313D]  (AR v1)\nTrack  8  accurately ripped (confidence 1)  [DBA87995]  (AR v1)\nTrack  9  accurately ripped (confidence 1)  [B752A62D]  (AR v1)\nTrack 10  accurately ripped (confidence 1)  [E8E113E6]  (AR v1)\nTrack 11  accurately ripped (confidence 1)  [4482942D]  (AR v1)\nTrack 12  accurately ripped (confidence 1)  [652454E6]  (AR v1)\nTrack 13  accurately ripped (confidence 1)  [43210ECF]  (AR v1)\nTrack 14  accurately ripped (confidence 1)  [981A5469]  (AR v1)\nTrack 15  accurately ripped (confidence 1)  [FD432B3F]  (AR v1)\nTrack 16  accurately ripped (confidence 1)  [4F961BA9]  (AR v1)\nTrack 17  accurately ripped (confidence 1)  [BC7765AF]  (AR v1)\nTrack 18  accurately ripped (confidence 1)  [2F26F676]  (AR v1)\nTrack 19  accurately ripped (confidence 1)  [F9AE0111]  (AR v1)\n \nAll tracks accurately ripped\n\nEnd of status report\n\n===================================================================================\n************************** PLEASE SEED AFTER DOWNLOADING **************************\n===================================================================================\n","torrent":{"xt":"urn:btih:849dcbd11ecf5315509218e9f47c1abb2c008cfe","amp;dn":"Hoodoo+Gurus+%281992%29+Electric+Soup+The+Singles+Collection+%5BImage%5D","amp;tr":["udp%3A%2F%2Ftracker.openbittorrent.com%3A80","udp%3A%2F%2Fopen.demonii.com%3A1337","udp%3A%2F%2Ftracker.coppersurfer.tk%3A6969","udp%3A%2F%2Fexodus.desync.com%3A6969"],"infoHash":"849dcbd11ecf5315509218e9f47c1abb2c008cfe","infoHashBuffer":{"type":"Buffer","data":[132,157,203,209,30,207,83,21,80,146,24,233,244,124,26,187,44,0,140,254]},"announce":[],"urlList":[]}}